<mxfile host="app.diagrams.net" modified="2023-01-10T01:19:58.442Z" agent="5.0 (Windows NT 10.0; Win64; x64) AppleWebKit/537.36 (KHTML, like Gecko) Chrome/108.0.0.0 Safari/537.36 Edg/108.0.1462.54" version="20.8.3" etag="Hxvu067pAR8LbvYf0tri" type="github">
  <diagram id="BiDxwENCVyBqaSN5nOLB" name="第 1 页">
    <mxGraphModel dx="1174" dy="743" grid="1" gridSize="10" guides="1" tooltips="1" connect="1" arrows="1" fold="1" page="1" pageScale="1" pageWidth="827" pageHeight="1169" math="0" shadow="0">
      <root>
        <mxCell id="0" />
        <mxCell id="1" parent="0" />
        <mxCell id="Pk0iN_IP82bqLYtaJuyF-3" style="edgeStyle=orthogonalEdgeStyle;rounded=0;orthogonalLoop=1;jettySize=auto;html=1;exitX=0.5;exitY=1;exitDx=0;exitDy=0;" edge="1" parent="1" source="Pk0iN_IP82bqLYtaJuyF-1" target="Pk0iN_IP82bqLYtaJuyF-2">
          <mxGeometry relative="1" as="geometry" />
        </mxCell>
        <mxCell id="Pk0iN_IP82bqLYtaJuyF-1" value="开始" style="rounded=1;whiteSpace=wrap;html=1;" vertex="1" parent="1">
          <mxGeometry x="110" y="400" width="90" height="50" as="geometry" />
        </mxCell>
        <mxCell id="Pk0iN_IP82bqLYtaJuyF-5" style="edgeStyle=orthogonalEdgeStyle;rounded=0;orthogonalLoop=1;jettySize=auto;html=1;exitX=0.5;exitY=1;exitDx=0;exitDy=0;" edge="1" parent="1" source="Pk0iN_IP82bqLYtaJuyF-2" target="Pk0iN_IP82bqLYtaJuyF-4">
          <mxGeometry relative="1" as="geometry" />
        </mxCell>
        <mxCell id="Pk0iN_IP82bqLYtaJuyF-2" value="测试1" style="rounded=1;whiteSpace=wrap;html=1;" vertex="1" parent="1">
          <mxGeometry x="105" y="500" width="100" height="60" as="geometry" />
        </mxCell>
        <mxCell id="Pk0iN_IP82bqLYtaJuyF-8" style="edgeStyle=orthogonalEdgeStyle;rounded=0;orthogonalLoop=1;jettySize=auto;html=1;exitX=0.5;exitY=1;exitDx=0;exitDy=0;" edge="1" parent="1" source="Pk0iN_IP82bqLYtaJuyF-4" target="Pk0iN_IP82bqLYtaJuyF-7">
          <mxGeometry relative="1" as="geometry" />
        </mxCell>
        <mxCell id="Pk0iN_IP82bqLYtaJuyF-4" value="测试2" style="rounded=1;whiteSpace=wrap;html=1;" vertex="1" parent="1">
          <mxGeometry x="105" y="600" width="100" height="60" as="geometry" />
        </mxCell>
        <mxCell id="Pk0iN_IP82bqLYtaJuyF-7" value="结束" style="rounded=1;whiteSpace=wrap;html=1;" vertex="1" parent="1">
          <mxGeometry x="110" y="690" width="90" height="50" as="geometry" />
        </mxCell>
      </root>
    </mxGraphModel>
  </diagram>
</mxfile>
